<?xml version="1.0" encoding="UTF-8" standalone="no"?>
<!DOCTYPE svg PUBLIC "-//W3C//DTD SVG 1.1//EN" "http://www.w3.org/Graphics/SVG/1.1/DTD/svg11.dtd">
<svg width="100%" height="100%" viewBox="0 0 27 37" version="1.1" xmlns="http://www.w3.org/2000/svg" xmlns:xlink="http://www.w3.org/1999/xlink" xml:space="preserve" xmlns:serif="http://www.serif.com/" style="fill-rule:evenodd;clip-rule:evenodd;stroke-linejoin:round;stroke-miterlimit:2;">
    <g transform="matrix(1,0,0,1,-549.966,-364.679)">
        <g transform="matrix(1,0,0,1,566.891,397.934)">
            <path d="M0,-31.814C0,-31.814 6.935,-31.409 7.075,-22.695C7.216,-13.982 6.463,-4.256 8.359,-1.621C10.255,1.013 9.569,2.837 7.278,3.04C4.987,3.242 3.171,0.608 0.735,1.824C-1.7,3.04 -1.393,2.859 -2.661,3.051L-4.806,3.051C-6.074,2.859 -5.767,3.04 -8.203,1.824C-10.639,0.608 -12.454,3.242 -14.745,3.04C-17.037,2.837 -17.723,1.013 -15.826,-1.621C-13.93,-4.256 -14.683,-13.982 -14.543,-22.695C-14.402,-31.409 -7.468,-31.814 -7.468,-31.814C-7.468,-31.814 -3.734,-35.056 0,-31.814" style="fill:rgb(67,159,71);fill-rule:nonzero;"/>
        </g>
    </g>
</svg>
