<?xml version="1.0" encoding="UTF-8" standalone="no"?>
<!DOCTYPE svg PUBLIC "-//W3C//DTD SVG 1.1//EN" "http://www.w3.org/Graphics/SVG/1.1/DTD/svg11.dtd">
<svg width="100%" height="100%" viewBox="0 0 35 34" version="1.1" xmlns="http://www.w3.org/2000/svg" xmlns:xlink="http://www.w3.org/1999/xlink" xml:space="preserve" xmlns:serif="http://www.serif.com/" style="fill-rule:evenodd;clip-rule:evenodd;stroke-linejoin:round;stroke-miterlimit:2;">
    <g transform="matrix(1,0,0,1,-614.651,-367.323)">
        <g>
            <g transform="matrix(1,0,0,1,620.668,396.377)">
                <path d="M0,-7.924C0,-7.924 1.321,2.641 9.905,4.622C18.489,6.603 22.243,-5.886 21.79,-7.924C20.47,-13.867 3.962,-14.527 0,-7.924" style="fill:rgb(190,30,45);fill-rule:nonzero;"/>
            </g>
            <g transform="matrix(0,1,1,0,626.775,362.965)">
                <path d="M22.29,-12.123C14.524,-12.123 4.358,-4.419 4.358,5.084C4.358,14.586 14.524,22.29 22.29,22.29C30.055,22.29 25.754,14.113 25.754,4.61C25.754,-4.893 30.055,-12.123 22.29,-12.123" style="fill:rgb(229,58,52);fill-rule:nonzero;"/>
            </g>
        </g>
    </g>
</svg>
