<?xml version="1.0" encoding="UTF-8" standalone="no"?>
<!DOCTYPE svg PUBLIC "-//W3C//DTD SVG 1.1//EN" "http://www.w3.org/Graphics/SVG/1.1/DTD/svg11.dtd">
<svg width="100%" height="100%" viewBox="0 0 37 10" version="1.1" xmlns="http://www.w3.org/2000/svg" xmlns:xlink="http://www.w3.org/1999/xlink" xml:space="preserve" xmlns:serif="http://www.serif.com/" style="fill-rule:evenodd;clip-rule:evenodd;stroke-linejoin:round;stroke-miterlimit:2;">
    <g transform="matrix(1,0,0,1,-381.443,-313.591)">
        <g transform="matrix(0,-1,-1,0,388.402,309.358)">
            <path d="M-6.959,-9.999C-10.707,-9.999 -13.743,-6.203 -13.743,-1.519C-13.743,3.162 -10.707,6.959 -6.959,6.959C-3.214,6.959 -4.416,3.162 -4.416,-1.519C-4.416,-6.203 -3.214,-9.999 -6.959,-9.999" style="fill:rgb(252,234,237);fill-rule:nonzero;"/>
        </g>
        <g transform="matrix(0,-1,-1,0,408.328,309.358)">
            <path d="M-6.959,-9.999C-10.707,-9.999 -13.743,-6.203 -13.743,-1.519C-13.743,3.165 -10.707,6.959 -6.959,6.959C-3.214,6.959 -4.416,3.165 -4.416,-1.519C-4.416,-6.203 -3.214,-9.999 -6.959,-9.999" style="fill:rgb(252,234,237);fill-rule:nonzero;"/>
        </g>
        <g transform="matrix(1,0,0,1,392.316,318.031)">
            <path d="M0,0.876C-0.807,0.876 -1.461,0.222 -1.461,-0.586C-1.461,-1.331 -0.901,-1.938 -0.179,-2.027C-0.738,-2.493 -1.456,-2.776 -2.239,-2.776C-4.015,-2.776 -5.454,-1.337 -5.454,0.437C-5.454,2.212 -4.015,3.652 -2.239,3.652C-0.486,3.652 0.937,2.245 0.971,0.499C0.712,0.73 0.374,0.876 0,0.876" style="fill:rgb(55,71,79);fill-rule:nonzero;"/>
        </g>
        <g transform="matrix(1,0,0,1,412.383,318.031)">
            <path d="M0,0.876C-0.807,0.876 -1.462,0.222 -1.462,-0.586C-1.462,-1.331 -0.902,-1.938 -0.18,-2.027C-0.739,-2.493 -1.457,-2.776 -2.241,-2.776C-4.016,-2.776 -5.454,-1.337 -5.454,0.437C-5.454,2.212 -4.016,3.652 -2.241,3.652C-0.487,3.652 0.936,2.245 0.97,0.499C0.711,0.73 0.374,0.876 0,0.876" style="fill:rgb(55,71,79);fill-rule:nonzero;"/>
        </g>
    </g>
</svg>
