<?xml version="1.0" encoding="UTF-8" standalone="no"?>
<!DOCTYPE svg PUBLIC "-//W3C//DTD SVG 1.1//EN" "http://www.w3.org/Graphics/SVG/1.1/DTD/svg11.dtd">
<svg width="100%" height="100%" viewBox="0 0 36 15" version="1.1" xmlns="http://www.w3.org/2000/svg" xmlns:xlink="http://www.w3.org/1999/xlink" xml:space="preserve" xmlns:serif="http://www.serif.com/" style="fill-rule:evenodd;clip-rule:evenodd;stroke-linejoin:round;stroke-miterlimit:2;">
    <g transform="matrix(1,0,0,1,-451.68,-311.207)">
        <g>
            <g transform="matrix(0,-1,-1,0,456.301,311.207)">
                <path d="M-4.621,-4.621C-7.173,-4.621 -9.242,-2.552 -9.242,0C-9.242,2.552 -7.173,4.621 -4.621,4.621C-2.069,4.621 0,2.552 0,0C0,-2.552 -2.069,-4.621 -4.621,-4.621" style="fill:rgb(132,59,149);fill-rule:nonzero;"/>
            </g>
            <g transform="matrix(1,0,0,1,463.606,316.176)">
                <path d="M0,9.429C-0.26,9.389 -0.508,9.264 -0.702,9.057L-7.172,2.122C-7.631,1.631 -7.604,0.861 -7.113,0.403C-6.622,-0.056 -5.852,-0.029 -5.394,0.462L1.077,7.398C1.534,7.889 1.508,8.659 1.017,9.117C0.733,9.382 0.356,9.485 0,9.429" style="fill:rgb(132,59,149);fill-rule:nonzero;"/>
            </g>
            <g transform="matrix(0,-1,-1,0,456.266,312.388)">
                <path d="M-3.489,-3.489C-5.416,-3.489 -6.978,-1.927 -6.978,-0C-6.978,1.927 -5.416,3.489 -3.489,3.489C-1.563,3.489 -0,1.927 -0,-0C-0,-1.927 -1.563,-3.489 -3.489,-3.489" style="fill:rgb(252,234,237);fill-rule:nonzero;"/>
            </g>
            <g transform="matrix(1,0,0,1,457.779,315.581)">
                <path d="M0,0.593C-0.546,0.593 -0.987,0.151 -0.987,-0.395C-0.987,-0.899 -0.608,-1.309 -0.121,-1.37C-0.499,-1.686 -0.984,-1.876 -1.514,-1.876C-2.714,-1.876 -3.687,-0.903 -3.687,0.296C-3.687,1.496 -2.714,2.469 -1.514,2.469C-0.328,2.469 0.634,1.519 0.656,0.338C0.482,0.495 0.253,0.593 0,0.593" style="fill:rgb(55,71,79);fill-rule:nonzero;"/>
            </g>
            <g transform="matrix(0,1,1,0,482.371,311.207)">
                <path d="M4.621,-4.621C7.173,-4.621 9.242,-2.552 9.242,0C9.242,2.552 7.173,4.621 4.621,4.621C2.069,4.621 0,2.552 0,0C0,-2.552 2.069,-4.621 4.621,-4.621" style="fill:rgb(132,59,149);fill-rule:nonzero;"/>
            </g>
            <g transform="matrix(1,0,0,1,475.067,316.176)">
                <path d="M0,9.429C0.26,9.389 0.508,9.264 0.702,9.057L7.172,2.122C7.631,1.631 7.604,0.861 7.113,0.403C6.622,-0.056 5.853,-0.029 5.394,0.462L-1.077,7.398C-1.534,7.889 -1.508,8.659 -1.017,9.117C-0.733,9.382 -0.356,9.485 0,9.429" style="fill:rgb(132,59,149);fill-rule:nonzero;"/>
            </g>
            <g transform="matrix(0,1,1,0,482.407,312.388)">
                <path d="M3.489,-3.489C5.416,-3.489 6.978,-1.927 6.978,-0C6.978,1.927 5.416,3.489 3.489,3.489C1.563,3.489 0,1.927 0,-0C0,-1.927 1.563,-3.489 3.489,-3.489" style="fill:rgb(252,234,237);fill-rule:nonzero;"/>
            </g>
            <g transform="matrix(1,0,0,1,480.893,315.581)">
                <path d="M0,0.593C0.546,0.593 0.987,0.151 0.987,-0.395C0.987,-0.899 0.608,-1.309 0.121,-1.37C0.499,-1.686 0.984,-1.876 1.514,-1.876C2.714,-1.876 3.687,-0.903 3.687,0.296C3.687,1.496 2.714,2.469 1.514,2.469C0.329,2.469 -0.634,1.519 -0.656,0.338C-0.482,0.495 -0.253,0.593 0,0.593" style="fill:rgb(55,71,79);fill-rule:nonzero;"/>
            </g>
        </g>
    </g>
</svg>
