<?xml version="1.0" encoding="UTF-8" standalone="no"?>
<!DOCTYPE svg PUBLIC "-//W3C//DTD SVG 1.1//EN" "http://www.w3.org/Graphics/SVG/1.1/DTD/svg11.dtd">
<svg width="100%" height="100%" viewBox="0 0 35 16" version="1.1" xmlns="http://www.w3.org/2000/svg" xmlns:xlink="http://www.w3.org/1999/xlink" xml:space="preserve" xmlns:serif="http://www.serif.com/" style="fill-rule:evenodd;clip-rule:evenodd;stroke-linejoin:round;stroke-miterlimit:2;">
    <g transform="matrix(1,0,0,1,-385.728,-375.273)">
        <g>
            <g transform="matrix(0,-1,-1,0,391.75,380.57)">
                <path d="M-5.298,-5.298C-8.224,-5.298 -10.595,-2.926 -10.595,-0.001C-10.595,2.925 -8.224,5.298 -5.298,5.298C-2.372,5.298 -0.001,2.925 -0.001,-0.001C-0.001,-2.926 -2.372,-5.298 -5.298,-5.298" style="fill:rgb(252,234,237);fill-rule:nonzero;"/>
            </g>
            <g transform="matrix(1,0,0,1,385.923,387.987)">
                <path d="M0,-12.714C0,-12.714 11.654,-11.655 12.714,-5.827C13.773,0 -2.119,-7.417 0,-12.714" style="fill:rgb(246,184,25);fill-rule:nonzero;"/>
            </g>
            <g transform="matrix(0,1,1,0,413.999,380.57)">
                <path d="M5.298,-5.298C8.224,-5.298 10.595,-2.926 10.595,-0.001C10.595,2.925 8.224,5.298 5.298,5.298C2.372,5.298 0.001,2.925 0.001,-0.001C0.001,-2.926 2.372,-5.298 5.298,-5.298" style="fill:rgb(252,234,237);fill-rule:nonzero;"/>
            </g>
            <g transform="matrix(1,0,0,1,419.826,387.987)">
                <path d="M0,-12.714C0,-12.714 -11.654,-11.655 -12.714,-5.827C-13.773,0 2.119,-7.417 0,-12.714" style="fill:rgb(246,184,25);fill-rule:nonzero;"/>
            </g>
            <g transform="matrix(0,-1,-1,0,391.927,385.161)">
                <path d="M-1.589,-1.589C-2.467,-1.589 -3.178,-0.877 -3.178,0C-3.178,0.878 -2.467,1.589 -1.589,1.589C-0.711,1.589 0,0.878 0,0C0,-0.877 -0.711,-1.589 -1.589,-1.589" style="fill:rgb(55,71,79);fill-rule:nonzero;"/>
            </g>
            <g transform="matrix(0,-1,-1,0,413.999,385.161)">
                <path d="M-1.589,-1.589C-2.467,-1.589 -3.178,-0.877 -3.178,0C-3.178,0.878 -2.467,1.589 -1.589,1.589C-0.711,1.589 0,0.878 0,0C0,-0.877 -0.711,-1.589 -1.589,-1.589" style="fill:rgb(55,71,79);fill-rule:nonzero;"/>
            </g>
        </g>
    </g>
</svg>
