<?xml version="1.0" encoding="UTF-8" standalone="no"?>
<!DOCTYPE svg PUBLIC "-//W3C//DTD SVG 1.1//EN" "http://www.w3.org/Graphics/SVG/1.1/DTD/svg11.dtd">
<svg width="100%" height="100%" viewBox="0 0 37 11" version="1.1" xmlns="http://www.w3.org/2000/svg" xmlns:xlink="http://www.w3.org/1999/xlink" xml:space="preserve" xmlns:serif="http://www.serif.com/" style="fill-rule:evenodd;clip-rule:evenodd;stroke-linejoin:round;stroke-miterlimit:2;">
    <g transform="matrix(1,0,0,1,-449.437,-381.654)">
        <g>
            <g transform="matrix(0,-1,-1,0,459.441,382.536)">
                <path d="M-5.757,-7.393C-7.775,-7.393 -9.411,-4.449 -9.411,-0.818C-9.411,2.813 -7.775,5.757 -5.757,5.757C-3.739,5.757 -4.386,2.813 -4.386,-0.818C-4.386,-4.449 -3.739,-7.393 -5.757,-7.393" style="fill:rgb(252,234,237);fill-rule:nonzero;"/>
            </g>
            <g transform="matrix(0,-1,-1,0,474.892,382.536)">
                <path d="M-5.757,-7.393C-7.775,-7.393 -9.411,-4.449 -9.411,-0.818C-9.411,2.813 -7.775,5.757 -5.757,5.757C-3.739,5.757 -4.386,2.813 -4.386,-0.818C-4.386,-4.449 -3.739,-7.393 -5.757,-7.393" style="fill:rgb(252,234,237);fill-rule:nonzero;"/>
            </g>
            <g transform="matrix(0,-1,-1,0,460.096,385.257)">
                <path d="M-2.102,-2.102C-3.263,-2.102 -4.204,-1.161 -4.204,0C-4.204,1.162 -3.263,2.102 -2.102,2.102C-0.942,2.102 0,1.162 0,0C0,-1.161 -0.942,-2.102 -2.102,-2.102" style="fill:rgb(55,71,79);fill-rule:nonzero;"/>
            </g>
            <g transform="matrix(0,-1,-1,0,475.71,385.256)">
                <path d="M-2.102,-2.102C-3.263,-2.102 -4.204,-1.161 -4.204,0.001C-4.204,1.161 -3.263,2.102 -2.102,2.102C-0.942,2.102 0,1.161 0,0.001C0,-1.161 -0.942,-2.102 -2.102,-2.102" style="fill:rgb(55,71,79);fill-rule:nonzero;"/>
            </g>
            <g transform="matrix(0.428039,0.90376,0.90376,-0.428039,462.355,366.946)">
                <path d="M8.034,-18.099L14.346,-18.099L27.97,10.667L23.442,15.136L8.034,-18.099Z" style="fill:rgb(229,58,52);fill-rule:nonzero;"/>
            </g>
        </g>
    </g>
</svg>
