<?xml version="1.0" encoding="UTF-8" standalone="no"?>
<!DOCTYPE svg PUBLIC "-//W3C//DTD SVG 1.1//EN" "http://www.w3.org/Graphics/SVG/1.1/DTD/svg11.dtd">
<svg width="100%" height="100%" viewBox="0 0 35 15" version="1.1" xmlns="http://www.w3.org/2000/svg" xmlns:xlink="http://www.w3.org/1999/xlink" xml:space="preserve" xmlns:serif="http://www.serif.com/" style="fill-rule:evenodd;clip-rule:evenodd;stroke-linejoin:round;stroke-miterlimit:2;">
    <g transform="matrix(1,0,0,1,-384.608,-447.255)">
        <g>
            <g transform="matrix(0,-1,-1,0,391.614,447.256)">
                <path d="M-7.007,-7.007C-10.877,-7.007 -14.014,-3.87 -14.014,0C-14.014,3.87 -10.877,7.007 -7.007,7.007C-3.137,7.007 0,3.87 0,0C0,-3.87 -3.137,-7.007 -7.007,-7.007" style="fill:white;fill-rule:nonzero;"/>
            </g>
            <g transform="matrix(0,-1,-1,0,411.934,447.256)">
                <path d="M-7.007,-7.007C-10.877,-7.007 -14.014,-3.87 -14.014,0C-14.014,3.87 -10.877,7.007 -7.007,7.007C-3.137,7.007 0,3.87 0,0C0,-3.87 -3.137,-7.007 -7.007,-7.007" style="fill:white;fill-rule:nonzero;"/>
            </g>
            <g transform="matrix(1,0,0,1,393.467,453.035)">
                <path d="M0,2.803L-4.671,2.803C-5.442,2.803 -6.073,2.172 -6.073,1.402C-6.073,0.631 -5.442,0 -4.671,0L0,0C0.771,0 1.401,0.631 1.401,1.402C1.401,2.172 0.771,2.803 0,2.803" style="fill:rgb(55,71,79);fill-rule:nonzero;"/>
            </g>
            <g transform="matrix(1,0,0,1,414.736,453.035)">
                <path d="M0,2.803L-4.671,2.803C-5.442,2.803 -6.073,2.172 -6.073,1.402C-6.073,0.631 -5.442,0 -4.671,0L0,0C0.771,0 1.401,0.631 1.401,1.402C1.401,2.172 0.771,2.803 0,2.803" style="fill:rgb(55,71,79);fill-rule:nonzero;"/>
            </g>
        </g>
    </g>
</svg>
