<?xml version="1.0" encoding="UTF-8" standalone="no"?>
<!DOCTYPE svg PUBLIC "-//W3C//DTD SVG 1.1//EN" "http://www.w3.org/Graphics/SVG/1.1/DTD/svg11.dtd">
<svg width="100%" height="100%" viewBox="0 0 32 18" version="1.1" xmlns="http://www.w3.org/2000/svg" xmlns:xlink="http://www.w3.org/1999/xlink" xml:space="preserve" xmlns:serif="http://www.serif.com/" style="fill-rule:evenodd;clip-rule:evenodd;stroke-linejoin:round;stroke-miterlimit:2;">
    <g transform="matrix(1,0,0,1,-220.045,-561.453)">
        <g>
            <g transform="matrix(0,-1,-1,0,232.949,553.605)">
                <path d="M-12.904,-18.541C-19.851,-18.541 -25.485,-11.501 -25.485,-2.818C-25.485,5.865 -19.851,12.904 -12.904,12.904C-5.96,12.904 -8.189,5.865 -8.189,-2.818C-8.189,-11.501 -5.96,-18.541 -12.904,-18.541" style="fill:rgb(120,49,146);fill-rule:nonzero;"/>
            </g>
            <g transform="matrix(1,0,0,1,223.543,569.262)">
                <path d="M0,-7.532C0.727,-5.27 2.218,-1.255 3.857,-0.435C5.349,0.311 5.152,-4.368 4.828,-7.77C2.963,-7.843 1.321,-7.832 0,-7.532" style="fill:rgb(252,234,237);fill-rule:nonzero;"/>
            </g>
            <g transform="matrix(1,0,0,1,242.631,569.464)">
                <path d="M0,-7.949C-0.323,-4.547 -0.516,0.109 0.972,-0.638C2.638,-1.469 4.148,-5.593 4.863,-7.832C3.503,-8.058 1.854,-8.037 0,-7.949" style="fill:rgb(252,234,237);fill-rule:nonzero;"/>
            </g>
        </g>
    </g>
</svg>
