<?xml version="1.0" encoding="UTF-8" standalone="no"?>
<!DOCTYPE svg PUBLIC "-//W3C//DTD SVG 1.1//EN" "http://www.w3.org/Graphics/SVG/1.1/DTD/svg11.dtd">
<svg width="100%" height="100%" viewBox="0 0 34 13" version="1.1" xmlns="http://www.w3.org/2000/svg" xmlns:xlink="http://www.w3.org/1999/xlink" xml:space="preserve" xmlns:serif="http://www.serif.com/" style="fill-rule:evenodd;clip-rule:evenodd;stroke-linejoin:round;stroke-miterlimit:2;">
    <g transform="matrix(1,0,0,1,-85.9295,-631.791)">
        <g>
            <g transform="matrix(1,0,0,1,119.095,638.148)">
                <path d="M0,0C0,3.511 -2.846,6.357 -6.357,6.357L-26.808,6.357C-30.319,6.357 -33.165,3.511 -33.165,0C-33.165,-3.511 -30.319,-6.357 -26.808,-6.357L-6.357,-6.357C-2.846,-6.357 0,-3.511 0,0" style="fill:rgb(197,39,40);fill-rule:nonzero;"/>
            </g>
            <g transform="matrix(1,0,0,1,92.2864,636.397)">
                <path d="M0,-4.605C-0.271,-4.605 -0.536,-4.583 -0.798,-4.551C-0.938,-4.27 -1.026,-3.936 -1.026,-3.508C-1.026,-1.569 0.546,0 2.483,0C3.618,0 4.616,-0.546 5.257,-1.381C5.899,-0.546 6.897,0 8.032,0C8.909,0 9.701,-0.332 10.316,-0.865C10.932,-0.332 11.724,0 12.602,0C13.736,0 14.735,-0.546 15.376,-1.381C16.018,-0.546 17.016,0 18.151,0C20.088,0 21.659,-1.569 21.659,-3.508C21.659,-3.92 21.575,-4.247 21.444,-4.521C21.12,-4.57 20.789,-4.605 20.452,-4.605L0,-4.605Z" style="fill:rgb(252,234,237);fill-rule:nonzero;"/>
            </g>
            <g transform="matrix(1,0,0,1,112.92,639.714)">
                <path d="M0,4.605C0.271,4.605 0.535,4.583 0.798,4.551C0.938,4.27 1.026,3.936 1.026,3.508C1.026,1.569 -0.546,0 -2.483,0C-3.618,0 -4.616,0.546 -5.258,1.381C-5.899,0.546 -6.897,0 -8.032,0C-8.909,0 -9.701,0.332 -10.316,0.865C-10.932,0.332 -11.724,0 -12.602,0C-13.737,0 -14.735,0.546 -15.376,1.381C-16.018,0.546 -17.016,0 -18.151,0C-20.088,0 -21.66,1.569 -21.66,3.508C-21.66,3.921 -21.575,4.247 -21.444,4.521C-21.12,4.571 -20.79,4.605 -20.452,4.605L0,4.605Z" style="fill:rgb(252,234,237);fill-rule:nonzero;"/>
            </g>
        </g>
    </g>
</svg>
