<?xml version="1.0" encoding="UTF-8" standalone="no"?>
<!DOCTYPE svg PUBLIC "-//W3C//DTD SVG 1.1//EN" "http://www.w3.org/Graphics/SVG/1.1/DTD/svg11.dtd">
<svg width="100%" height="100%" viewBox="0 0 33 22" version="1.1" xmlns="http://www.w3.org/2000/svg" xmlns:xlink="http://www.w3.org/1999/xlink" xml:space="preserve" xmlns:serif="http://www.serif.com/" style="fill-rule:evenodd;clip-rule:evenodd;stroke-linejoin:round;stroke-miterlimit:2;">
    <g transform="matrix(1,0,0,1,-220.234,-627.658)">
        <g>
            <g transform="matrix(1,0,0,1,251.219,643.468)">
                <path d="M0,-3.668C-11.914,-9.566 -23.509,-7.2 -30.098,-4.859C-27.908,1.4 -21.894,5.898 -14.813,5.898C-8.19,5.898 -2.5,1.963 0,-3.668" style="fill:rgb(244,144,177);fill-rule:nonzero;"/>
            </g>
            <g transform="matrix(1,0,0,1,251.219,625.08)">
                <path d="M0,14.72C-0.227,15.231 1.358,11.185 1.358,8.312C1.358,-0.511 -5.882,3.477 -14.813,3.477C-23.745,3.477 -30.985,-0.511 -30.985,8.312C-30.985,10.139 -30.67,11.893 -30.098,13.529C-23.509,11.188 -11.914,8.822 0,14.72" style="fill:rgb(136,26,81);fill-rule:nonzero;"/>
            </g>
            <g transform="matrix(-0.889362,0.457204,0.457204,0.889362,228.496,633.366)">
                <path d="M2.225,-7.264C3.041,-5.469 4.314,-2.307 3.818,-1.001C3.363,0.07 2.565,0.145 2.225,-0.517C1.991,-0.972 -0.002,-3.771 -1.399,-5.602C-0.084,-6.427 1.113,-7.049 2.225,-7.264" style="fill:white;fill-rule:nonzero;"/>
            </g>
            <g transform="matrix(-0.889362,-0.457204,-0.457204,0.889362,244.362,633.366)">
                <path d="M-2.225,-7.264C-3.041,-5.469 -4.314,-2.307 -3.818,-1.001C-3.363,0.07 -2.565,0.145 -2.225,-0.517C-1.991,-0.972 0.002,-3.771 1.399,-5.602C0.084,-6.427 -1.113,-7.049 -2.225,-7.264" style="fill:white;fill-rule:nonzero;"/>
            </g>
        </g>
    </g>
</svg>
