<?xml version="1.0" encoding="UTF-8" standalone="no"?>
<!DOCTYPE svg PUBLIC "-//W3C//DTD SVG 1.1//EN" "http://www.w3.org/Graphics/SVG/1.1/DTD/svg11.dtd">
<svg width="100%" height="100%" viewBox="0 0 30 17" version="1.1" xmlns="http://www.w3.org/2000/svg" xmlns:xlink="http://www.w3.org/1999/xlink" xml:space="preserve" xmlns:serif="http://www.serif.com/" style="fill-rule:evenodd;clip-rule:evenodd;stroke-linejoin:round;stroke-miterlimit:2;">
    <g transform="matrix(1,0,0,1,-86.0839,-698.742)">
        <g>
            <g transform="matrix(0,1,1,0,98.2264,693.134)">
                <path d="M17.447,-12.143C10.909,-12.143 5.607,-5.518 5.607,2.653C5.607,10.824 10.909,17.447 17.447,17.447C23.982,17.447 21.885,10.824 21.885,2.653C21.885,-5.518 23.982,-12.143 17.447,-12.143" style="fill:rgb(216,27,96);fill-rule:nonzero;"/>
            </g>
            <g transform="matrix(1,0,0,1,112.383,707.991)">
                <path d="M0,7.088C-0.684,4.96 -2.087,1.181 -3.63,0.41C-5.034,-0.293 -4.849,4.111 -4.543,7.312C-2.788,7.381 -1.243,7.37 0,7.088" style="fill:rgb(252,234,237);fill-rule:nonzero;"/>
            </g>
            <g transform="matrix(1,0,0,1,94.421,707.801)">
                <path d="M0,7.48C0.304,4.279 0.485,-0.102 -0.915,0.6C-2.482,1.382 -3.903,5.263 -4.576,7.369C-3.296,7.582 -1.744,7.563 0,7.48" style="fill:rgb(252,234,237);fill-rule:nonzero;"/>
            </g>
        </g>
    </g>
</svg>
