<?xml version="1.0" encoding="UTF-8" standalone="no"?>
<!DOCTYPE svg PUBLIC "-//W3C//DTD SVG 1.1//EN" "http://www.w3.org/Graphics/SVG/1.1/DTD/svg11.dtd">
<svg width="100%" height="100%" viewBox="0 0 27 27" version="1.1" xmlns="http://www.w3.org/2000/svg" xmlns:xlink="http://www.w3.org/1999/xlink" xml:space="preserve" xmlns:serif="http://www.serif.com/" style="fill-rule:evenodd;clip-rule:evenodd;stroke-linejoin:round;stroke-miterlimit:2;">
    <g transform="matrix(1,0,0,1,-155.391,-694.793)">
        <g>
            <g transform="matrix(0,-1,-1,0,168.528,694.793)">
                <path d="M-13.137,-13.137C-20.392,-13.137 -26.273,-7.255 -26.273,-0.001C-26.273,7.255 -20.392,13.137 -13.137,13.137C-5.88,13.137 -0.001,7.255 -0.001,-0.001C-0.001,-7.255 -5.88,-13.137 -13.137,-13.137" style="fill:rgb(248,158,27);fill-rule:nonzero;"/>
            </g>
            <g transform="matrix(0,-1,-1,0,168.529,702.149)">
                <path d="M-5.78,-5.78C-8.971,-5.78 -11.56,-3.192 -11.56,0.001C-11.56,3.192 -8.971,5.78 -5.78,5.78C-2.588,5.78 0,3.192 0,0.001C0,-3.192 -2.588,-5.78 -5.78,-5.78" style="fill:rgb(227,83,37);fill-rule:nonzero;"/>
            </g>
        </g>
    </g>
</svg>
