<?xml version="1.0" encoding="UTF-8" standalone="no"?>
<!DOCTYPE svg PUBLIC "-//W3C//DTD SVG 1.1//EN" "http://www.w3.org/Graphics/SVG/1.1/DTD/svg11.dtd">
<svg width="100%" height="100%" viewBox="0 0 42 20" version="1.1" xmlns="http://www.w3.org/2000/svg" xmlns:xlink="http://www.w3.org/1999/xlink" xml:space="preserve" xmlns:serif="http://www.serif.com/" style="fill-rule:evenodd;clip-rule:evenodd;stroke-linejoin:round;stroke-miterlimit:2;">
    <g transform="matrix(1,0,0,1,-316.255,-563.882)">
        <g>
            <g transform="matrix(1,0,0,1,327.734,563.882)">
                <path d="M0,12.926C-1.052,12.926 -2.18,12.397 -3.37,11.345C-3.582,11.156 -3.796,10.963 -4.01,10.769C-6.188,8.794 -7.221,8.063 -8.687,8.797C-9.64,9.272 -10.798,8.887 -11.275,7.934C-11.751,6.981 -11.365,5.822 -10.412,5.346C-6.44,3.36 -3.418,6.099 -1.419,7.911C-1.216,8.095 -1.016,8.277 -0.814,8.455C-0.664,8.589 -0.532,8.694 -0.421,8.777L-0.421,1.928C-0.421,0.863 0.443,0 1.508,0C2.574,0 3.437,0.863 3.437,1.928L3.437,8.871C3.437,8.912 3.435,8.954 3.433,8.995C3.402,9.47 3.15,11.878 1.179,12.69C0.798,12.848 0.405,12.926 0,12.926" style="fill:rgb(197,39,40);fill-rule:nonzero;"/>
            </g>
            <g transform="matrix(1,0,0,1,345.795,563.882)">
                <path d="M0,12.926C-0.404,12.926 -0.798,12.848 -1.179,12.69C-3.15,11.878 -3.403,9.47 -3.433,8.995C-3.436,8.954 -3.437,8.912 -3.437,8.871L-3.437,1.928C-3.437,0.863 -2.573,0 -1.508,0C-0.443,0 0.42,0.863 0.42,1.928L0.42,8.777C0.532,8.694 0.663,8.589 0.814,8.455C1.016,8.277 1.217,8.095 1.419,7.911C3.419,6.099 6.44,3.361 10.412,5.346C11.365,5.822 11.751,6.981 11.275,7.934C10.798,8.887 9.64,9.272 8.687,8.797C7.219,8.062 6.188,8.794 4.01,10.769C3.796,10.963 3.582,11.156 3.37,11.345C2.18,12.397 1.051,12.926 0,12.926" style="fill:rgb(197,39,40);fill-rule:nonzero;"/>
            </g>
            <g transform="matrix(1,0,0,1,334.129,564.139)">
                <path d="M0,18.772C-1.066,18.772 -1.929,17.908 -1.929,16.843L-1.929,1.928C-1.929,0.862 -1.066,0 0,0C1.065,0 1.928,0.862 1.928,1.928L1.928,16.843C1.928,17.908 1.065,18.772 0,18.772" style="fill:rgb(197,39,40);fill-rule:nonzero;"/>
            </g>
            <g transform="matrix(1,0,0,1,339.401,564.139)">
                <path d="M0,18.772C-1.065,18.772 -1.929,17.908 -1.929,16.843L-1.929,1.928C-1.929,0.862 -1.065,0 0,0C1.065,0 1.929,0.862 1.929,1.928L1.929,16.843C1.929,17.908 1.065,18.772 0,18.772" style="fill:rgb(197,39,40);fill-rule:nonzero;"/>
            </g>
        </g>
    </g>
</svg>
