<?xml version="1.0" encoding="UTF-8" standalone="no"?>
<!DOCTYPE svg PUBLIC "-//W3C//DTD SVG 1.1//EN" "http://www.w3.org/Graphics/SVG/1.1/DTD/svg11.dtd">
<svg width="100%" height="100%" viewBox="0 0 36 17" version="1.1" xmlns="http://www.w3.org/2000/svg" xmlns:xlink="http://www.w3.org/1999/xlink" xml:space="preserve" xmlns:serif="http://www.serif.com/" style="fill-rule:evenodd;clip-rule:evenodd;stroke-linejoin:round;stroke-miterlimit:2;">
    <g transform="matrix(1,0,0,1,-385.864,-563.742)">
        <g>
            <g transform="matrix(1,0,0,1,418.277,581.109)">
                <path d="M0,-17.367C0,-17.367 5.316,-2.835 1.062,-1.418C-3.19,0 -6.735,-14.531 -6.735,-14.531L0,-17.367Z" style="fill:rgb(23,134,200);fill-rule:nonzero;"/>
            </g>
            <g transform="matrix(-0.558337,-0.829614,-0.829614,0.558337,416.688,577.5)">
                <path d="M-0.42,-0.789C-1.154,-0.79 -1.751,-0.563 -1.75,-0.284C-1.751,-0.003 -1.155,0.225 -0.42,0.224C0.316,0.225 0.911,-0.003 0.912,-0.281C0.912,-0.562 0.315,-0.79 -0.42,-0.789" style="fill:rgb(225,243,252);fill-rule:nonzero;"/>
            </g>
            <g transform="matrix(-0.36611,-0.930571,-0.930571,0.36611,418.681,577.572)">
                <path d="M-0.473,-0.693C-1.209,-0.693 -1.804,-0.465 -1.804,-0.185C-1.804,0.095 -1.207,0.321 -0.473,0.32C0.262,0.321 0.859,0.094 0.859,-0.187C0.858,-0.467 0.263,-0.694 -0.473,-0.693" style="fill:rgb(225,243,252);fill-rule:nonzero;"/>
            </g>
            <g transform="matrix(-0.203127,-0.979152,-0.979152,0.203127,419.777,575.72)">
                <path d="M-0.495,-0.609C-1.231,-0.61 -1.826,-0.382 -1.827,-0.101C-1.827,0.178 -1.231,0.405 -0.495,0.405C0.241,0.404 0.836,0.177 0.836,-0.104C0.836,-0.384 0.24,-0.61 -0.495,-0.609" style="fill:rgb(225,243,252);fill-rule:nonzero;"/>
            </g>
            <g transform="matrix(1,0,0,1,388.577,581.109)">
                <path d="M0,-17.367C0,-17.367 -5.317,-2.835 -1.064,-1.418C3.189,0 6.733,-14.531 6.733,-14.531L0,-17.367Z" style="fill:rgb(23,134,200);fill-rule:nonzero;"/>
            </g>
            <g transform="matrix(-0.557881,0.829921,0.829921,0.557881,390.166,577.499)">
                <path d="M0.42,-0.79C1.155,-0.791 1.752,-0.565 1.751,-0.285C1.752,-0.003 1.156,0.224 0.42,0.225C-0.315,0.225 -0.911,-0.001 -0.911,-0.282C-0.911,-0.562 -0.315,-0.789 0.42,-0.79" style="fill:rgb(225,243,252);fill-rule:nonzero;"/>
            </g>
            <g transform="matrix(-0.365774,0.930704,0.930704,0.365774,388.172,577.572)">
                <path d="M0.473,-0.693C1.209,-0.693 1.804,-0.465 1.804,-0.186C1.804,0.094 1.208,0.321 0.473,0.321C-0.262,0.321 -0.859,0.094 -0.859,-0.186C-0.859,-0.465 -0.263,-0.693 0.473,-0.693" style="fill:rgb(225,243,252);fill-rule:nonzero;"/>
            </g>
            <g transform="matrix(-0.202931,0.979193,0.979193,0.202931,387.077,575.719)">
                <path d="M0.497,-0.611C1.232,-0.609 1.827,-0.383 1.829,-0.103C1.829,0.177 1.232,0.404 0.497,0.405C-0.239,0.403 -0.834,0.177 -0.834,-0.104C-0.835,-0.384 -0.238,-0.61 0.497,-0.611" style="fill:rgb(225,243,252);fill-rule:nonzero;"/>
            </g>
        </g>
    </g>
</svg>
