<?xml version="1.0" encoding="UTF-8" standalone="no"?>
<!DOCTYPE svg PUBLIC "-//W3C//DTD SVG 1.1//EN" "http://www.w3.org/Graphics/SVG/1.1/DTD/svg11.dtd">
<svg width="100%" height="100%" viewBox="0 0 28 36" version="1.1" xmlns="http://www.w3.org/2000/svg" xmlns:xlink="http://www.w3.org/1999/xlink" xml:space="preserve" xmlns:serif="http://www.serif.com/" style="fill-rule:evenodd;clip-rule:evenodd;stroke-linejoin:round;stroke-miterlimit:2;">
    <g transform="matrix(1,0,0,1,-389.474,-622.292)">
        <g>
            <g transform="matrix(1,0,0,1,398.826,638.622)">
                <path d="M0,3.296C0.814,2.776 1.356,1.866 1.356,0.827C1.356,-0.44 0.551,-1.516 -0.575,-1.925L-2.161,-16.33L-4.506,-15.705L-3.156,-1.638C-3.968,-1.117 -4.506,-0.21 -4.506,0.827C-4.506,2.064 -3.74,3.117 -2.659,3.549L-1.536,15.248C-1.536,15.248 -8.102,17.749 -9.352,19.001C-7.789,19.626 1.591,17.751 1.591,17.751L0,3.296Z" style="fill:rgb(240,95,106);fill-rule:nonzero;"/>
            </g>
            <g transform="matrix(1,0,0,1,409.427,626.41)">
                <path d="M0,27.581L0.383,15.766C1.473,15.339 2.246,14.281 2.246,13.039C2.246,11.865 1.555,10.855 0.557,10.387L1.008,-3.499L-1.372,-3.974L-2.041,10.441C-2.977,10.931 -3.616,11.909 -3.616,13.039C-3.616,14.07 -3.082,14.977 -2.276,15.498L-2.963,30.276C-2.963,30.276 6.517,31.555 8.038,30.831C6.71,29.663 0,27.581 0,27.581" style="fill:rgb(240,95,106);fill-rule:nonzero;"/>
            </g>
        </g>
    </g>
</svg>
