<?xml version="1.0" encoding="UTF-8" standalone="no"?>
<!DOCTYPE svg PUBLIC "-//W3C//DTD SVG 1.1//EN" "http://www.w3.org/Graphics/SVG/1.1/DTD/svg11.dtd">
<svg width="100%" height="100%" viewBox="0 0 39 16" version="1.1" xmlns="http://www.w3.org/2000/svg" xmlns:xlink="http://www.w3.org/1999/xlink" xml:space="preserve" xmlns:serif="http://www.serif.com/" style="fill-rule:evenodd;clip-rule:evenodd;stroke-linejoin:round;stroke-miterlimit:2;">
    <g transform="matrix(1,0,0,1,-452.287,-634.192)">
        <g>
            <g transform="matrix(1,0,0,1,452.564,647.053)">
                <path d="M0,-10.647C0,-10.647 1.786,-5.701 4.259,-1.305C4.396,-1.305 -0.137,-0.069 -0.275,1.168C-0.412,2.404 7.831,2.542 9.342,1.443C10.716,-0.206 11.265,-5.427 11.265,-5.427C11.265,-5.427 12.227,-12.708 4.808,-12.845C4.808,-12.845 0.962,-13.189 0,-10.647" style="fill:rgb(67,159,71);fill-rule:nonzero;"/>
            </g>
            <g transform="matrix(1,0,0,1,490.726,647.259)">
                <path d="M0,-10.647C0,-10.647 -1.786,-5.701 -4.259,-1.305C-4.396,-1.305 0.137,-0.069 0.275,1.168C0.412,2.404 -7.831,2.542 -9.342,1.443C-10.716,-0.206 -11.265,-5.427 -11.265,-5.427C-11.265,-5.427 -12.227,-12.708 -4.808,-12.845C-4.808,-12.845 -0.962,-13.189 0,-10.647" style="fill:rgb(67,159,71);fill-rule:nonzero;"/>
            </g>
        </g>
    </g>
</svg>
