<?xml version="1.0" encoding="UTF-8" standalone="no"?>
<!DOCTYPE svg PUBLIC "-//W3C//DTD SVG 1.1//EN" "http://www.w3.org/Graphics/SVG/1.1/DTD/svg11.dtd">
<svg width="100%" height="100%" viewBox="0 0 34 21" version="1.1" xmlns="http://www.w3.org/2000/svg" xmlns:xlink="http://www.w3.org/1999/xlink" xml:space="preserve" xmlns:serif="http://www.serif.com/" style="fill-rule:evenodd;clip-rule:evenodd;stroke-linejoin:round;stroke-miterlimit:2;">
    <g transform="matrix(1,0,0,1,-387.314,-698.199)">
        <g>
            <g transform="matrix(1,0,0,1,398.02,709.166)">
                <path d="M0,-1.563C-1.167,-6.256 -2.94,-9.983 -4.258,-10.729C-4.43,-10.883 -4.607,-10.967 -4.79,-10.967C-4.929,-10.967 -5.065,-10.918 -5.197,-10.828C-6.531,-10.4 -8.439,-6.518 -9.672,-1.563C-11.03,3.896 -11.054,8.589 -9.727,8.919C-8.928,9.118 -7.821,7.691 -6.771,5.335C-6.319,7.806 -5.6,9.404 -4.79,9.404C-3.996,9.404 -3.29,7.867 -2.837,5.479C-1.805,7.749 -0.728,9.114 0.055,8.919C1.382,8.589 1.358,3.896 0,-1.563" style="fill:rgb(248,158,27);fill-rule:nonzero;"/>
            </g>
            <g transform="matrix(1,0,0,1,420.25,709.166)">
                <path d="M0,-1.563C-1.167,-6.256 -2.94,-9.983 -4.258,-10.729C-4.43,-10.883 -4.607,-10.967 -4.79,-10.967C-4.929,-10.967 -5.065,-10.918 -5.197,-10.828C-6.531,-10.4 -8.439,-6.518 -9.672,-1.563C-11.03,3.896 -11.054,8.589 -9.727,8.919C-8.928,9.118 -7.821,7.691 -6.771,5.335C-6.319,7.806 -5.6,9.404 -4.79,9.404C-3.996,9.404 -3.29,7.867 -2.837,5.479C-1.805,7.749 -0.728,9.114 0.055,8.919C1.382,8.589 1.358,3.896 0,-1.563" style="fill:rgb(248,158,27);fill-rule:nonzero;"/>
            </g>
        </g>
    </g>
</svg>
