<?xml version="1.0" encoding="UTF-8" standalone="no"?>
<!DOCTYPE svg PUBLIC "-//W3C//DTD SVG 1.1//EN" "http://www.w3.org/Graphics/SVG/1.1/DTD/svg11.dtd">
<svg width="100%" height="100%" viewBox="0 0 35 18" version="1.1" xmlns="http://www.w3.org/2000/svg" xmlns:xlink="http://www.w3.org/1999/xlink" xml:space="preserve" xmlns:serif="http://www.serif.com/" style="fill-rule:evenodd;clip-rule:evenodd;stroke-linejoin:round;stroke-miterlimit:2;">
    <g transform="matrix(1,0,0,1,-547.705,-563.267)">
        <g>
            <g transform="matrix(-0.234587,-0.972095,-0.972095,0.234587,552.223,564.924)">
                <path d="M-8.191,-3.106C-8.191,-3.106 -4.993,2.374 0.988,1.244C5.255,2.089 -2.742,6.521 -8.191,5.961C-13.642,5.4 -15.179,4.207 -15.179,4.207L-8.191,-3.106Z" style="fill:rgb(255,202,39);fill-rule:nonzero;"/>
            </g>
            <g transform="matrix(-0.234612,0.972089,0.972089,0.234612,577.296,564.924)">
                <path d="M8.191,-3.106C8.191,-3.106 4.993,2.374 -0.988,1.244C-5.255,2.089 2.741,6.521 8.191,5.96C13.642,5.4 15.179,4.207 15.179,4.207L8.191,-3.106Z" style="fill:rgb(255,202,39);fill-rule:nonzero;"/>
            </g>
        </g>
    </g>
</svg>
