<?xml version="1.0" encoding="UTF-8" standalone="no"?>
<!DOCTYPE svg PUBLIC "-//W3C//DTD SVG 1.1//EN" "http://www.w3.org/Graphics/SVG/1.1/DTD/svg11.dtd">
<svg width="100%" height="100%" viewBox="0 0 16 28" version="1.1" xmlns="http://www.w3.org/2000/svg" xmlns:xlink="http://www.w3.org/1999/xlink" xml:space="preserve" xmlns:serif="http://www.serif.com/" style="fill-rule:evenodd;clip-rule:evenodd;stroke-linejoin:round;stroke-miterlimit:2;">
    <g transform="matrix(1,0,0,1,-626.401,-557.242)">
        <g>
            <g transform="matrix(1,0,0,1,627.793,569.889)">
                <path d="M0,2.102C1.57,8.413 3.953,13.426 5.726,14.428C5.957,14.635 6.196,14.748 6.442,14.748C6.628,14.748 6.811,14.682 6.989,14.561C8.783,13.986 11.349,8.766 13.007,2.102C14.833,-5.239 14.866,-11.55 13.08,-11.994C12.006,-12.262 10.518,-10.343 9.106,-7.174C8.498,-10.497 7.531,-12.646 6.442,-12.646C5.374,-12.646 4.425,-10.579 3.815,-7.367C2.428,-10.42 0.979,-12.256 -0.073,-11.994C-1.859,-11.55 -1.826,-5.239 0,2.102" style="fill:rgb(248,158,27);fill-rule:nonzero;"/>
            </g>
            <g transform="matrix(1,0,0,1,640.873,583.984)">
                <path d="M0,-26.09C-1.074,-26.357 -2.562,-24.438 -3.974,-21.27C-4.582,-24.593 -5.549,-26.742 -6.639,-26.742C-6.787,-26.742 -6.934,-26.698 -7.077,-26.62L-7.077,0.527C-6.933,0.606 -6.787,0.652 -6.639,0.652C-6.452,0.652 -6.269,0.586 -6.091,0.465C-4.297,-0.11 -1.731,-5.33 -0.073,-11.994C1.752,-19.335 1.785,-25.646 0,-26.09" style="fill:rgb(219,140,24);fill-rule:nonzero;"/>
            </g>
        </g>
    </g>
</svg>
