<?xml version="1.0" encoding="UTF-8" standalone="no"?>
<!DOCTYPE svg PUBLIC "-//W3C//DTD SVG 1.1//EN" "http://www.w3.org/Graphics/SVG/1.1/DTD/svg11.dtd">
<svg width="100%" height="100%" viewBox="0 0 23 16" version="1.1" xmlns="http://www.w3.org/2000/svg" xmlns:xlink="http://www.w3.org/1999/xlink" xml:space="preserve" xmlns:serif="http://www.serif.com/" style="fill-rule:evenodd;clip-rule:evenodd;stroke-linejoin:round;stroke-miterlimit:2;">
    <g transform="matrix(1,0,0,1,-554.656,-699.027)">
        <g>
            <g transform="matrix(1,0,0,1,556.443,699.027)">
                <path d="M0,15.314C0,15.314 4.084,15.314 7.912,11.741C6.891,6.126 -0.255,0.255 -1.787,0C-1.787,3.063 0,15.314 0,15.314" style="fill:rgb(229,58,52);fill-rule:nonzero;"/>
            </g>
            <g transform="matrix(1,0,0,1,575.33,699.027)">
                <path d="M0,15.314C0,15.314 -4.084,15.314 -7.912,11.741C-6.891,6.126 0.255,0.255 1.787,0C1.787,3.063 0,15.314 0,15.314" style="fill:rgb(229,58,52);fill-rule:nonzero;"/>
            </g>
        </g>
    </g>
</svg>
