<?xml version="1.0" encoding="UTF-8" standalone="no"?>
<!DOCTYPE svg PUBLIC "-//W3C//DTD SVG 1.1//EN" "http://www.w3.org/Graphics/SVG/1.1/DTD/svg11.dtd">
<svg width="100%" height="100%" viewBox="0 0 41 18" version="1.1" xmlns="http://www.w3.org/2000/svg" xmlns:xlink="http://www.w3.org/1999/xlink" xml:space="preserve" xmlns:serif="http://www.serif.com/" style="fill-rule:evenodd;clip-rule:evenodd;stroke-linejoin:round;stroke-miterlimit:2;">
    <g transform="matrix(1,0,0,1,-681.418,-696.51)">
        <g>
            <g transform="matrix(1,0,0,1,699.579,700.712)">
                <path d="M0,9.647L-5.513,-0.001C-5.513,-0.001 -16.08,-5.973 -16.999,-3.676C-17.918,-1.379 -10.567,2.756 -10.567,2.756C-10.567,2.756 -19.755,1.377 -17.918,4.134C-16.08,6.89 -10.567,7.35 -10.567,7.35C-10.567,7.35 -16.08,9.188 -13.783,11.025C-11.486,12.863 1.378,15.62 0,9.647" style="fill:rgb(255,202,39);fill-rule:nonzero;"/>
            </g>
            <g transform="matrix(1,0,0,1,703.574,700.712)">
                <path d="M0,9.647L5.513,-0.001C5.513,-0.001 16.08,-5.973 16.999,-3.676C17.918,-1.379 10.567,2.756 10.567,2.756C10.567,2.756 19.755,1.377 17.918,4.134C16.08,6.89 10.567,7.35 10.567,7.35C10.567,7.35 16.08,9.188 13.783,11.025C11.486,12.863 -1.378,15.62 0,9.647" style="fill:rgb(255,202,39);fill-rule:nonzero;"/>
            </g>
        </g>
    </g>
</svg>
