<?xml version="1.0" encoding="UTF-8" standalone="no"?>
<!DOCTYPE svg PUBLIC "-//W3C//DTD SVG 1.1//EN" "http://www.w3.org/Graphics/SVG/1.1/DTD/svg11.dtd">
<svg width="100%" height="100%" viewBox="0 0 33 20" version="1.1" xmlns="http://www.w3.org/2000/svg" xmlns:xlink="http://www.w3.org/1999/xlink" xml:space="preserve" xmlns:serif="http://www.serif.com/" style="fill-rule:evenodd;clip-rule:evenodd;stroke-linejoin:round;stroke-miterlimit:2;">
    <g transform="matrix(1,0,0,1,-617.931,-697.066)">
        <g>
            <g transform="matrix(1,0,0,1,638.678,700.393)">
                <path d="M0,15.736C-0.618,15.736 -1.021,15.679 -1.074,15.671C-1.714,15.575 -2.154,14.979 -2.058,14.339C-1.963,13.7 -1.369,13.26 -0.73,13.354C-0.676,13.361 2.528,13.779 4.586,11.638C6.438,9.713 6.932,6.294 6.057,1.477C5.941,0.841 6.363,0.231 7,0.115C7.637,0 8.246,0.422 8.362,1.058C9.383,6.674 8.673,10.788 6.253,13.284C4.195,15.407 1.481,15.736 0,15.736" style="fill:rgb(229,58,52);fill-rule:nonzero;"/>
            </g>
            <g transform="matrix(0,-1,-1,0,646.157,697.066)">
                <path d="M-4.325,-4.325C-6.714,-4.325 -8.65,-2.389 -8.65,-0C-8.65,2.388 -6.714,4.325 -4.325,4.325C-1.936,4.325 -0,2.388 -0,-0C-0,-2.389 -1.936,-4.325 -4.325,-4.325" style="fill:rgb(255,202,39);fill-rule:nonzero;"/>
            </g>
            <g transform="matrix(1,0,0,1,629.735,700.393)">
                <path d="M0,15.736C-1.481,15.736 -4.194,15.408 -6.253,13.284C-8.673,10.788 -9.383,6.674 -8.362,1.058C-8.246,0.421 -7.636,0 -6.999,0.115C-6.363,0.231 -5.941,0.841 -6.057,1.477C-6.932,6.294 -6.438,9.713 -4.586,11.638C-2.52,13.786 0.699,13.358 0.731,13.354C1.37,13.262 1.964,13.705 2.057,14.344C2.15,14.982 1.712,15.575 1.074,15.671C1.021,15.679 0.618,15.736 0,15.736" style="fill:rgb(229,58,52);fill-rule:nonzero;"/>
            </g>
            <g transform="matrix(0,1,1,0,622.256,697.066)">
                <path d="M4.325,-4.325C6.714,-4.325 8.65,-2.389 8.65,-0C8.65,2.388 6.714,4.325 4.325,4.325C1.936,4.325 0,2.388 0,-0C0,-2.389 1.936,-4.325 4.325,-4.325" style="fill:rgb(255,202,39);fill-rule:nonzero;"/>
            </g>
        </g>
    </g>
</svg>
