<?xml version="1.0" encoding="UTF-8" standalone="no"?>
<!DOCTYPE svg PUBLIC "-//W3C//DTD SVG 1.1//EN" "http://www.w3.org/Graphics/SVG/1.1/DTD/svg11.dtd">
<svg width="100%" height="100%" viewBox="0 0 42 22" version="1.1" xmlns="http://www.w3.org/2000/svg" xmlns:xlink="http://www.w3.org/1999/xlink" xml:space="preserve" xmlns:serif="http://www.serif.com/" style="fill-rule:evenodd;clip-rule:evenodd;stroke-linejoin:round;stroke-miterlimit:2;">
    <g transform="matrix(1,0,0,1,-81.9732,-304.724)">
        <g>
            <g transform="matrix(1,0,0,1,92.8533,326.555)">
                <path d="M0,-21.83C0,-21.83 -5.286,-19.873 -8.223,-16.152C-10.572,-12.825 -9.985,-6.755 -9.985,-6.755C-9.985,-6.755 -12.726,-2.448 -8.615,0.098C-8.615,0.098 -7.505,-0.099 -8.027,-0.881C-8.549,-1.665 -9.789,-1.991 -9.528,-3.166C-9.202,-3.101 -7.179,-0.687 -6.33,-1.012C-5.482,-1.339 -5.939,-1.926 -6.526,-2.318C-7.114,-2.709 -8.614,-3.427 -8.68,-4.014C-8.745,-4.602 -7.505,-4.667 -6.2,-3.753C-5.743,-3.362 -5.025,-4.014 -5.678,-4.602C-6.33,-5.188 -7.375,-5.711 -8.288,-5.776C-9.202,-5.842 -8.811,-17.914 -0.392,-19.481C-0.392,-19.481 0.783,-19.382 0.881,-20.655C0.979,-21.928 0,-21.83 0,-21.83" style="fill:rgb(229,58,52);fill-rule:nonzero;"/>
            </g>
            <g transform="matrix(1,0,0,1,112.128,326.555)">
                <path d="M0,-21.83C0,-21.83 5.286,-19.873 8.223,-16.152C10.572,-12.825 9.985,-6.755 9.985,-6.755C9.985,-6.755 12.726,-2.448 8.614,0.098C8.614,0.098 7.505,-0.099 8.027,-0.881C8.549,-1.665 9.789,-1.991 9.528,-3.166C9.202,-3.101 7.179,-0.687 6.33,-1.012C5.482,-1.339 5.939,-1.926 6.526,-2.318C7.114,-2.709 8.614,-3.427 8.679,-4.014C8.745,-4.602 7.505,-4.667 6.2,-3.753C5.743,-3.362 5.025,-4.014 5.678,-4.602C6.33,-5.188 7.375,-5.711 8.288,-5.776C9.202,-5.842 8.81,-17.914 0.392,-19.481C0.392,-19.481 -0.783,-19.382 -0.881,-20.655C-0.979,-21.928 0,-21.83 0,-21.83" style="fill:rgb(229,58,52);fill-rule:nonzero;"/>
            </g>
        </g>
    </g>
</svg>
