<?xml version="1.0" encoding="UTF-8" standalone="no"?>
<!DOCTYPE svg PUBLIC "-//W3C//DTD SVG 1.1//EN" "http://www.w3.org/Graphics/SVG/1.1/DTD/svg11.dtd">
<svg width="100%" height="100%" viewBox="0 0 39 10" version="1.1" xmlns="http://www.w3.org/2000/svg" xmlns:xlink="http://www.w3.org/1999/xlink" xml:space="preserve" xmlns:serif="http://www.serif.com/" style="fill-rule:evenodd;clip-rule:evenodd;stroke-linejoin:round;stroke-miterlimit:2;">
    <g transform="matrix(1,0,0,1,-217.237,-308.823)">
        <g>
            <g transform="matrix(1,0,0,1,244.26,318.774)">
                <path d="M0,-6.192C0,-6.192 3.095,-2.323 3.611,-2.323C4.127,-2.323 6.578,-5.16 6.836,-4.515C7.094,-3.87 4.514,0 3.999,0C3.482,0 0,-3.225 0,-3.225L0,-6.192Z" style="fill:rgb(154,80,158);fill-rule:nonzero;"/>
            </g>
            <g transform="matrix(1,0,0,1,248.935,311.857)">
                <path d="M0,4.667C0,4.667 -2.917,2.801 -0.583,-0.117C1.75,-3.034 4.084,-3.034 4.084,-3.034L3.501,0.467L6.302,0.233C6.302,0.233 5.251,7.701 0,4.667" style="fill:rgb(132,59,149);fill-rule:nonzero;"/>
            </g>
            <g transform="matrix(1,0,0,1,228.213,318.774)">
                <path d="M0,-6.192C0,-6.192 -3.096,-2.323 -3.612,-2.323C-4.128,-2.323 -6.579,-5.16 -6.836,-4.515C-7.095,-3.87 -4.515,0 -3.999,0C-3.483,0 0,-3.225 0,-3.225L0,-6.192Z" style="fill:rgb(154,80,158);fill-rule:nonzero;"/>
            </g>
            <g transform="matrix(1,0,0,1,223.538,311.857)">
                <path d="M0,4.667C0,4.667 2.917,2.801 0.583,-0.117C-1.75,-3.034 -4.084,-3.034 -4.084,-3.034L-3.5,0.467L-6.301,0.233C-6.301,0.233 -5.251,7.701 0,4.667" style="fill:rgb(132,59,149);fill-rule:nonzero;"/>
            </g>
        </g>
    </g>
</svg>
