<?xml version="1.0" encoding="UTF-8" standalone="no"?>
<!DOCTYPE svg PUBLIC "-//W3C//DTD SVG 1.1//EN" "http://www.w3.org/Graphics/SVG/1.1/DTD/svg11.dtd">
<svg width="100%" height="100%" viewBox="0 0 41 16" version="1.1" xmlns="http://www.w3.org/2000/svg" xmlns:xlink="http://www.w3.org/1999/xlink" xml:space="preserve" xmlns:serif="http://www.serif.com/" style="fill-rule:evenodd;clip-rule:evenodd;stroke-linejoin:round;stroke-miterlimit:2;">
    <g transform="matrix(1,0,0,1,-82.3585,-377.679)">
        <g>
            <g transform="matrix(1,0,0,1,108.035,382.57)">
                <path d="M0,5.907C0,5.907 5.695,8.438 6.328,8.016C6.961,7.594 7.805,4.22 7.805,4.22C7.805,4.22 4.008,2.321 4.641,1.477C5.273,0.634 6.539,0.001 6.539,0.001C6.539,0.001 5.062,-3.796 6.961,-4.64C8.859,-5.484 10.125,-4.007 10.969,-2.952C11.812,-1.898 14.976,-1.054 14.344,1.477C13.711,4.009 9.914,5.274 9.914,5.274C9.914,5.274 8.016,10.126 7.383,10.759C6.75,11.391 0,8.438 0,8.438C0,8.438 -1.898,7.173 0,5.907" style="fill:rgb(149,117,205);fill-rule:nonzero;"/>
            </g>
            <g transform="matrix(1,0,0,1,96.7854,382.57)">
                <path d="M0,5.907C0,5.907 -5.695,8.438 -6.328,8.016C-6.961,7.594 -7.805,4.22 -7.805,4.22C-7.805,4.22 -4.008,2.321 -4.641,1.477C-5.273,0.634 -6.539,0.001 -6.539,0.001C-6.539,0.001 -5.062,-3.796 -6.961,-4.64C-8.859,-5.484 -10.125,-4.007 -10.969,-2.952C-11.812,-1.898 -14.976,-1.054 -14.344,1.477C-13.711,4.009 -9.914,5.274 -9.914,5.274C-9.914,5.274 -8.016,10.126 -7.383,10.759C-6.75,11.391 0,8.438 0,8.438C0,8.438 1.898,7.173 0,5.907" style="fill:rgb(149,117,205);fill-rule:nonzero;"/>
            </g>
        </g>
    </g>
</svg>
