<?xml version="1.0" encoding="UTF-8" standalone="no"?>
<!DOCTYPE svg PUBLIC "-//W3C//DTD SVG 1.1//EN" "http://www.w3.org/Graphics/SVG/1.1/DTD/svg11.dtd">
<svg width="100%" height="100%" viewBox="0 0 38 10" version="1.1" xmlns="http://www.w3.org/2000/svg" xmlns:xlink="http://www.w3.org/1999/xlink" xml:space="preserve" xmlns:serif="http://www.serif.com/" style="fill-rule:evenodd;clip-rule:evenodd;stroke-linejoin:round;stroke-miterlimit:2;">
    <g transform="matrix(1,0,0,1,-151.689,-380.045)">
        <g>
            <g transform="matrix(1,0,0,1,161.794,382.266)">
                <path d="M0,4.566C0,4.566 -5.556,3.804 -6.747,-1.394C-7.143,-2.536 -8.334,-2.536 -8.201,-1.141L-8.069,-0.254C-8.069,-0.254 -9.128,-1.141 -9.392,-0C-9.657,1.141 -8.466,1.902 -8.466,1.902C-8.466,1.902 -10.45,1.015 -10.053,2.537C-9.657,4.058 -5.027,7.102 0.264,6.848C0.264,6.848 1.455,6.891 1.278,5.792C1.102,4.692 0,4.566 0,4.566" style="fill:rgb(213,119,40);fill-rule:nonzero;"/>
            </g>
            <g transform="matrix(1,0,0,1,179.315,382.266)">
                <path d="M0,4.566C0,4.566 5.556,3.804 6.746,-1.394C7.143,-2.536 8.334,-2.536 8.201,-1.141L8.069,-0.254C8.069,-0.254 9.128,-1.141 9.392,-0C9.657,1.141 8.466,1.902 8.466,1.902C8.466,1.902 10.45,1.015 10.053,2.537C9.657,4.058 5.027,7.102 -0.264,6.848C-0.264,6.848 -1.455,6.891 -1.279,5.792C-1.103,4.692 0,4.566 0,4.566" style="fill:rgb(213,119,40);fill-rule:nonzero;"/>
            </g>
        </g>
    </g>
</svg>
