<?xml version="1.0" encoding="UTF-8" standalone="no"?>
<!DOCTYPE svg PUBLIC "-//W3C//DTD SVG 1.1//EN" "http://www.w3.org/Graphics/SVG/1.1/DTD/svg11.dtd">
<svg width="100%" height="100%" viewBox="0 0 48 22" version="1.1" xmlns="http://www.w3.org/2000/svg" xmlns:xlink="http://www.w3.org/1999/xlink" xml:space="preserve" xmlns:serif="http://www.serif.com/" style="fill-rule:evenodd;clip-rule:evenodd;stroke-linejoin:round;stroke-miterlimit:2;">
    <g transform="matrix(1,0,0,1,-78.6485,-441.708)">
        <g>
            <g transform="matrix(1,0,0,1,121.467,443.278)">
                <path d="M0,2.635C0,2.635 1.424,-1.424 2.35,-1.567C3.276,-1.709 1.638,3.347 1.638,3.347C1.638,3.347 0.427,4.344 0,2.635" style="fill:rgb(248,158,27);fill-rule:nonzero;"/>
            </g>
            <g transform="matrix(1,0,0,1,117.384,443.278)">
                <path d="M0,4.273C0,4.273 1.709,-0.664 4.083,-1.519C4.558,-0.854 2.374,3.893 2.374,3.893C2.374,3.893 1.139,5.792 0,4.273" style="fill:rgb(248,158,27);fill-rule:nonzero;"/>
            </g>
            <g transform="matrix(1,0,0,1,125.329,443.227)">
                <path d="M0,6.632C0,6.632 1.873,1.754 0.608,-0.428C-0.184,-0.226 -1.571,4.813 -1.571,4.813C-1.571,4.813 -1.85,7.06 0,6.632" style="fill:rgb(248,158,27);fill-rule:nonzero;"/>
            </g>
            <g transform="matrix(1,0,0,1,109.947,453.912)">
                <path d="M0,0.225C0,0.225 1.513,7.003 5.294,4.543C9.075,2.082 2.594,-5.81 9.866,-8.472C17.138,-11.134 17.948,0.448 10.837,5.904C3.726,11.359 -1.076,8.274 -1.689,4.946C-2.301,1.619 0,0.225 0,0.225" style="fill:rgb(94,107,177);fill-rule:nonzero;"/>
            </g>
            <g transform="matrix(0.394953,-0.918702,-0.918702,-0.394953,122.107,448.824)">
                <path d="M-1.341,-0.883C-2.146,-0.883 -2.801,-0.23 -2.801,0.576C-2.801,1.382 -2.147,2.036 -1.341,2.036C-0.536,2.036 0.119,1.383 0.119,0.577C0.119,-0.23 -0.535,-0.883 -1.341,-0.883" style="fill:rgb(122,133,193);fill-rule:nonzero;"/>
            </g>
            <g transform="matrix(0.394713,-0.918804,-0.918804,-0.394713,122.854,454.46)">
                <path d="M-0.838,-0.552C-1.342,-0.552 -1.751,-0.143 -1.75,0.361C-1.75,0.864 -1.342,1.272 -0.838,1.272C-0.334,1.272 0.074,0.864 0.075,0.36C0.075,-0.144 -0.334,-0.552 -0.838,-0.552" style="fill:rgb(122,133,193);fill-rule:nonzero;"/>
            </g>
            <g transform="matrix(0.394713,-0.918804,-0.918804,-0.394713,119.072,456.694)">
                <path d="M-0.628,-0.414C-1.006,-0.414 -1.313,-0.108 -1.313,0.27C-1.312,0.648 -1.006,0.954 -0.628,0.954C-0.251,0.954 0.056,0.647 0.056,0.27C0.056,-0.108 -0.251,-0.414 -0.628,-0.414" style="fill:rgb(122,133,193);fill-rule:nonzero;"/>
            </g>
            <g transform="matrix(1,0,0,1,83.5573,443.278)">
                <path d="M0,2.635C0,2.635 -1.424,-1.424 -2.35,-1.567C-3.276,-1.709 -1.638,3.347 -1.638,3.347C-1.638,3.347 -0.427,4.344 0,2.635" style="fill:rgb(248,158,27);fill-rule:nonzero;"/>
            </g>
            <g transform="matrix(1,0,0,1,87.6401,443.278)">
                <path d="M0,4.273C0,4.273 -1.709,-0.664 -4.083,-1.519C-4.558,-0.854 -2.374,3.893 -2.374,3.893C-2.374,3.893 -1.139,5.792 0,4.273" style="fill:rgb(248,158,27);fill-rule:nonzero;"/>
            </g>
            <g transform="matrix(1,0,0,1,79.6952,443.227)">
                <path d="M0,6.632C0,6.632 -1.873,1.754 -0.608,-0.428C0.184,-0.226 1.571,4.813 1.571,4.813C1.571,4.813 1.85,7.06 0,6.632" style="fill:rgb(248,158,27);fill-rule:nonzero;"/>
            </g>
            <g transform="matrix(1,0,0,1,95.0773,453.912)">
                <path d="M0,0.225C0,0.225 -1.513,7.003 -5.294,4.543C-9.075,2.082 -2.593,-5.81 -9.866,-8.472C-17.138,-11.134 -17.948,0.448 -10.837,5.904C-3.726,11.359 1.076,8.274 1.689,4.946C2.301,1.619 0,0.225 0,0.225" style="fill:rgb(94,107,177);fill-rule:nonzero;"/>
            </g>
            <g transform="matrix(0.394953,0.918702,0.918702,-0.394953,82.9174,448.824)">
                <path d="M1.341,-0.883C2.146,-0.883 2.801,-0.23 2.801,0.576C2.801,1.382 2.147,2.036 1.341,2.036C0.536,2.036 -0.119,1.383 -0.119,0.577C-0.119,-0.23 0.535,-0.883 1.341,-0.883" style="fill:rgb(122,133,193);fill-rule:nonzero;"/>
            </g>
            <g transform="matrix(0.394713,0.918804,0.918804,-0.394713,82.1704,454.46)">
                <path d="M0.838,-0.552C1.342,-0.552 1.751,-0.143 1.75,0.361C1.75,0.864 1.342,1.272 0.838,1.272C0.334,1.272 -0.074,0.864 -0.075,0.36C-0.075,-0.144 0.334,-0.552 0.838,-0.552" style="fill:rgb(122,133,193);fill-rule:nonzero;"/>
            </g>
            <g transform="matrix(0.394713,0.918804,0.918804,-0.394713,85.9523,456.694)">
                <path d="M0.628,-0.414C1.006,-0.414 1.313,-0.108 1.313,0.27C1.312,0.648 1.006,0.954 0.628,0.954C0.251,0.954 -0.056,0.647 -0.056,0.27C-0.056,-0.108 0.251,-0.414 0.628,-0.414" style="fill:rgb(122,133,193);fill-rule:nonzero;"/>
            </g>
        </g>
    </g>
</svg>
