<?xml version="1.0" encoding="UTF-8" standalone="no"?>
<!DOCTYPE svg PUBLIC "-//W3C//DTD SVG 1.1//EN" "http://www.w3.org/Graphics/SVG/1.1/DTD/svg11.dtd">
<svg width="100%" height="100%" viewBox="0 0 48 15" version="1.1" xmlns="http://www.w3.org/2000/svg" xmlns:xlink="http://www.w3.org/1999/xlink" xml:space="preserve" xmlns:serif="http://www.serif.com/" style="fill-rule:evenodd;clip-rule:evenodd;stroke-linejoin:round;stroke-miterlimit:2;">
    <g transform="matrix(1,0,0,1,-213.33,-376.925)">
        <g>
            <g transform="matrix(1,0,0,1,231.022,391.895)">
                <path d="M0,-7.483L-5.215,-2.948L-9.07,-5.216L-9.75,-3.855L-5.442,0L0.227,-3.401L0,-7.483Z" style="fill:rgb(67,159,71);fill-rule:nonzero;"/>
            </g>
            <g transform="matrix(1,0,0,1,223.544,383.508)">
                <path d="M0,1.328L2.049,2.447L-1.766,7.917L-3.373,5.208C-3.373,5.208 -5.18,6.128 -6.087,6.135C-6.994,6.141 -10.207,0.95 -10.214,0.043C-10.22,-0.864 -4.366,-6.576 -3.459,-6.583C-2.553,-6.589 0.654,-2.305 0.654,-2.305L0,1.328Z" style="fill:rgb(229,58,52);fill-rule:nonzero;"/>
            </g>
            <g transform="matrix(-0.704039,0.710162,0.710162,0.704039,221.281,389.931)">
                <path d="M-8.252,-4.074L1.057,-4.074L-0.082,-1.644L-5.212,-1.98L-8.252,-4.074Z" style="fill:rgb(197,39,40);fill-rule:nonzero;"/>
            </g>
            <g transform="matrix(1,0,0,1,243.235,391.895)">
                <path d="M0,-7.483L5.215,-2.948L9.07,-5.216L9.75,-3.855L5.442,0L-0.227,-3.401L0,-7.483Z" style="fill:rgb(67,159,71);fill-rule:nonzero;"/>
            </g>
            <g transform="matrix(1,0,0,1,250.713,383.508)">
                <path d="M0,1.328L-2.049,2.447L1.766,7.917L3.373,5.208C3.373,5.208 5.18,6.128 6.087,6.135C6.994,6.141 10.207,0.95 10.214,0.043C10.22,-0.864 4.366,-6.576 3.459,-6.583C2.553,-6.589 -0.654,-2.305 -0.654,-2.305L0,1.328Z" style="fill:rgb(229,58,52);fill-rule:nonzero;"/>
            </g>
            <g transform="matrix(0.704039,0.710162,0.710162,-0.704039,253.697,379.987)">
                <path d="M-1.698,-3.439L7.611,-3.439L6.472,-5.869L1.342,-5.533L-1.698,-3.439Z" style="fill:rgb(197,39,40);fill-rule:nonzero;"/>
            </g>
        </g>
    </g>
</svg>
