<?xml version="1.0" encoding="UTF-8" standalone="no"?>
<!DOCTYPE svg PUBLIC "-//W3C//DTD SVG 1.1//EN" "http://www.w3.org/Graphics/SVG/1.1/DTD/svg11.dtd">
<svg width="100%" height="100%" viewBox="0 0 46 10" version="1.1" xmlns="http://www.w3.org/2000/svg" xmlns:xlink="http://www.w3.org/1999/xlink" xml:space="preserve" xmlns:serif="http://www.serif.com/" style="fill-rule:evenodd;clip-rule:evenodd;stroke-linejoin:round;stroke-miterlimit:2;">
    <g transform="matrix(1,0,0,1,-214.414,-447.183)">
        <g>
            <g transform="matrix(1,0,0,1,228.725,456.213)">
                <path d="M0,-8.315C0,-8.315 -6.13,-2.332 -8.777,-5.114C-11.423,-7.897 -14.458,-10.155 -14.306,-8.425C-14.154,-6.695 -11.706,-1.352 -9.574,0.675C-8.807,0.018 -9.188,-2.445 -9.188,-2.445C-9.188,-2.445 -7.702,0.534 -6.586,0.907C-5.863,0.82 -6.693,-1.392 -6.693,-1.392C-6.693,-1.392 -3.795,1.84 -0.686,0.507C2.424,-0.826 0.678,-7.833 0,-8.315" style="fill:rgb(52,193,214);fill-rule:nonzero;"/>
            </g>
            <g transform="matrix(1,0,0,1,245.611,456.213)">
                <path d="M0,-8.315C0,-8.315 6.13,-2.332 8.777,-5.114C11.423,-7.897 14.458,-10.155 14.306,-8.425C14.154,-6.695 11.706,-1.352 9.574,0.675C8.807,0.018 9.188,-2.445 9.188,-2.445C9.188,-2.445 7.702,0.534 6.586,0.907C5.863,0.82 6.693,-1.392 6.693,-1.392C6.693,-1.392 3.795,1.84 0.686,0.507C-2.424,-0.826 -0.678,-7.833 0,-8.315" style="fill:rgb(52,193,214);fill-rule:nonzero;"/>
            </g>
        </g>
    </g>
</svg>
